<?xml version="1.0" encoding="UTF-8" standalone="no"?>
<!-- Created with Inkscape (http://www.inkscape.org/) -->

<svg
   width="210mm"
   height="297mm"
   viewBox="0 0 210 297"
   version="1.1"
   id="svg5"
   inkscape:version="1.2.1 (9c6d41e410, 2022-07-14, custom)"
   sodipodi:docname="circle raymarching.svg"
   xml:space="preserve"
   xmlns:inkscape="http://www.inkscape.org/namespaces/inkscape"
   xmlns:sodipodi="http://sodipodi.sourceforge.net/DTD/sodipodi-0.dtd"
   xmlns="http://www.w3.org/2000/svg"
   xmlns:svg="http://www.w3.org/2000/svg"><sodipodi:namedview
     id="namedview7"
     pagecolor="#ffffff"
     bordercolor="#666666"
     borderopacity="1.0"
     inkscape:showpageshadow="2"
     inkscape:pageopacity="0.0"
     inkscape:pagecheckerboard="0"
     inkscape:deskcolor="#d1d1d1"
     inkscape:document-units="mm"
     showgrid="false"
     inkscape:zoom="1.4142136"
     inkscape:cx="326.32978"
     inkscape:cy="459.26585"
     inkscape:window-width="3392"
     inkscape:window-height="1392"
     inkscape:window-x="24"
     inkscape:window-y="24"
     inkscape:window-maximized="1"
     inkscape:current-layer="layer1"
     showguides="true" /><defs
     id="defs2"><marker
       style="overflow:visible"
       id="marker2091"
       refX="0"
       refY="0"
       orient="auto-start-reverse"
       inkscape:stockid="Arrow4"
       markerWidth="5"
       markerHeight="6"
       viewBox="0 0 5 6"
       inkscape:isstock="true"
       inkscape:collect="always"
       preserveAspectRatio="xMidYMid"><path
         style="fill:context-stroke;fill-rule:evenodd;stroke:none"
         d="m 1,0 -3,3 h -2 l 3,-3 -3,-3 h 2 z"
         id="path2089" /></marker><marker
       style="overflow:visible"
       id="marker1712"
       refX="0"
       refY="0"
       orient="auto-start-reverse"
       inkscape:stockid="Arrow4"
       markerWidth="5"
       markerHeight="6"
       viewBox="0 0 5 6"
       inkscape:isstock="true"
       inkscape:collect="always"
       preserveAspectRatio="xMidYMid"><path
         style="fill:context-stroke;fill-rule:evenodd;stroke:none"
         d="m 1,0 -3,3 h -2 l 3,-3 -3,-3 h 2 z"
         id="path1710" /></marker><marker
       style="overflow:visible"
       id="marker1674"
       refX="0"
       refY="0"
       orient="auto-start-reverse"
       inkscape:stockid="Arrow4"
       markerWidth="5"
       markerHeight="6"
       viewBox="0 0 5 6"
       inkscape:isstock="true"
       inkscape:collect="always"
       preserveAspectRatio="xMidYMid"><path
         style="fill:context-stroke;fill-rule:evenodd;stroke:none"
         d="m 1,0 -3,3 h -2 l 3,-3 -3,-3 h 2 z"
         id="path1672" /></marker><marker
       style="overflow:visible"
       id="Arrow4"
       refX="0"
       refY="0"
       orient="auto-start-reverse"
       inkscape:stockid="Arrow4"
       markerWidth="5"
       markerHeight="6"
       viewBox="0 0 5 6"
       inkscape:isstock="true"
       inkscape:collect="always"
       preserveAspectRatio="xMidYMid"><path
         style="fill:context-stroke;fill-rule:evenodd;stroke:none"
         d="m 1,0 -3,3 h -2 l 3,-3 -3,-3 h 2 z"
         id="path1741" /></marker></defs><g
     inkscape:label="Layer 1"
     inkscape:groupmode="layer"
     id="layer1"><circle
       style="fill:none;stroke:#000000;stroke-width:1;stroke-dasharray:none;stroke-opacity:1"
       id="path234"
       cx="114.61259"
       cy="-52.605492"
       r="42.310734" /><path
       style="fill:none;stroke:#000000;stroke-width:1;stroke-linecap:butt;stroke-linejoin:miter;stroke-dasharray:none;stroke-opacity:1;marker-end:url(#Arrow4)"
       d="M 96.3423,213.49881 77.514571,174.168"
       id="path1273"
       sodipodi:nodetypes="cc" /><path
       id="path1954"
       style="fill:none;fill-opacity:1;stroke:#808080;stroke-width:0.988;stroke-dasharray:7.904, 0.988;stroke-dashoffset:0;stroke-opacity:1"
       d="M 114.61264,237.46763 A 42.316372,14.197513 0 0 0 72.296362,251.66521 H 156.92892 A 42.316372,14.197513 0 0 0 114.61264,237.46763 Z" /><path
       style="fill:none;stroke:#000000;stroke-width:1;stroke-linecap:butt;stroke-linejoin:miter;stroke-dasharray:6, 2;stroke-dashoffset:0;stroke-opacity:1"
       d="M 114.61264,251.66525 96.342299,213.49881"
       id="path1490" /><circle
       id="path1559"
       style="fill:#000000;stroke:#000000;stroke-width:0.264583"
       cx="114.60625"
       cy="87.612511"
       r="0.0034999193" /><path
       style="fill:none;stroke:#808080;stroke-width:1;stroke-linecap:butt;stroke-linejoin:miter;stroke-dasharray:12, 1;stroke-dashoffset:0;stroke-opacity:1"
       d="M 72.831213,161.70686 114.60975,87.612513 156.39407,161.70686"
       id="path1572"
       sodipodi:nodetypes="ccc" /><path
       style="fill:none;stroke:#000000;stroke-width:1;stroke-linecap:butt;stroke-linejoin:miter;stroke-dasharray:none;stroke-opacity:1"
       d="M 72.302046,161.70686 H 156.92324"
       id="path1484" /><circle
       style="fill:#000000;fill-opacity:1;stroke:none;stroke-width:0.867595;stroke-dasharray:5.20558, 1.73519;stroke-dashoffset:0;stroke-opacity:1"
       id="circle1494"
       cx="114.61264"
       cy="87.623535"
       r="2.0528567" /><path
       style="fill:none;stroke:#000000;stroke-width:1;stroke-linecap:butt;stroke-linejoin:miter;stroke-dasharray:none;stroke-opacity:1;marker-start:url(#marker1674)"
       d="M 114.60975,87.612513 96.342299,213.49881"
       id="path1574" /><path
       style="fill:none;stroke:#000000;stroke-width:1;stroke-linecap:butt;stroke-linejoin:miter;stroke-dasharray:none;stroke-opacity:1;marker-end:url(#marker1712)"
       d="M 96.342297,213.49881 66.987663,193.45689"
       id="path1708" /><text
       xml:space="preserve"
       style="font-size:11.8262px;line-height:1.25;font-family:sans-serif;stroke-width:0.886966"
       x="86.769485"
       y="197.22495"
       id="text409"><tspan
         sodipodi:role="line"
         id="tspan407"
         style="font-style:normal;font-variant:normal;font-weight:normal;font-stretch:normal;font-size:11.8262px;font-family:'Fira Code';-inkscape-font-specification:'Fira Code';stroke-width:0.886966"
         x="86.769485"
         y="197.22495" /></text><path
       style="fill:#000000;stroke-width:0.0184274"
       d="m 85.610654,187.05419 c -0.0909,-0.0427 -0.150086,-0.1138 -0.166193,-0.19963 -0.01778,-0.0949 0.01377,-0.23367 0.453509,-1.99629 0.22125,-0.88682 0.41536,-1.68172 0.431355,-1.76646 0.03758,-0.19904 0.03743,-0.4469 -3.65e-4,-0.57411 -0.06812,-0.22937 -0.283495,-0.31322 -0.510875,-0.19888 -0.225645,0.11342 -0.422141,0.49787 -0.585047,1.14454 -0.03114,0.12362 -0.07215,0.26002 -0.09113,0.30309 -0.03388,0.0769 -0.03615,0.0783 -0.125423,0.0783 -0.11891,0 -0.140747,-0.0264 -0.125929,-0.15253 0.01548,-0.13176 0.159016,-0.62602 0.250784,-0.86359 0.08324,-0.21552 0.251842,-0.48788 0.365648,-0.59071 0.270175,-0.24408 0.639707,-0.28237 1.012567,-0.10495 0.249373,0.11865 0.471586,0.41127 0.523301,0.68903 0.03231,0.17357 0.03072,0.17169 0.08586,0.1012 0.443826,-0.56762 0.951673,-0.85541 1.582981,-0.89702 0.202947,-0.0134 0.460819,0.0181 0.638115,0.078 0.555868,0.18784 0.824378,0.70042 0.723918,1.38191 -0.06186,0.41972 -0.225966,0.99169 -0.510581,1.77969 -0.282124,0.7811 -0.309394,0.8664 -0.332092,1.03896 -0.05365,0.40786 0.05649,0.5751 0.347695,0.52796 0.166971,-0.0269 0.294005,-0.0924 0.434247,-0.22363 0.22921,-0.21442 0.405874,-0.53199 0.567246,-1.01974 0.05061,-0.15298 0.100912,-0.28885 0.111772,-0.30194 0.01082,-0.0131 0.05588,-0.0238 0.1,-0.0238 0.06479,0 0.08593,0.009 0.109792,0.0451 0.02737,0.0419 0.0268,0.0558 -0.0079,0.1896 -0.156288,0.60295 -0.518813,1.18444 -0.886623,1.42217 -0.389154,0.25152 -0.881199,0.21075 -1.191055,-0.0987 -0.179541,-0.17931 -0.26443,-0.3926 -0.26443,-0.66443 0,-0.17757 0.02964,-0.2888 0.198809,-0.7463 0.400831,-1.08396 0.605054,-1.83184 0.623965,-2.28501 0.01948,-0.46644 -0.112357,-0.75064 -0.386439,-0.83314 -0.116199,-0.035 -0.418923,-0.0245 -0.593513,0.0207 -0.183703,0.0474 -0.47689,0.19187 -0.639169,0.31488 -0.256138,0.19415 -0.593604,0.60747 -0.751731,0.92071 -0.03801,0.0752 -0.163955,0.55073 -0.444269,1.67684 -0.431851,1.73491 -0.415812,1.68617 -0.59008,1.7934 -0.113366,0.0697 -0.254961,0.0835 -0.358743,0.0348 z m 4.295808,-5.858 c -0.09814,-0.0249 -0.175827,-0.12145 -0.175827,-0.21857 0,-0.0978 0.0825,-0.21903 0.29639,-0.43556 l 0.213474,-0.2161 -1.900401,-0.005 c -1.777797,-0.005 -1.90359,-0.008 -1.949873,-0.0375 -0.106105,-0.0695 -0.133804,-0.22551 -0.05563,-0.31332 0.07984,-0.0897 0.02181,-0.0872 2.123959,-0.0872 1.084781,0 1.972325,-0.003 1.972325,-0.008 0,-0.003 -0.02851,-0.0543 -0.06331,-0.1121 -0.07639,-0.12687 -0.175375,-0.39326 -0.188528,-0.50741 -0.01703,-0.14798 0.09891,-0.26779 0.242608,-0.25063 0.09499,0.011 0.141124,0.0651 0.194186,0.22642 0.09051,0.2751 0.206957,0.44771 0.409354,0.60673 0.175267,0.13772 0.197178,0.16644 0.197675,0.25912 4.53e-4,0.10356 -0.05594,0.16739 -0.234981,0.26532 -0.312591,0.17098 -0.532795,0.34963 -0.763692,0.61956 -0.08905,0.10409 -0.175673,0.18686 -0.211122,0.20167 -0.03308,0.0138 -0.06244,0.024 -0.06531,0.023 -0.0027,-9e-4 -0.02142,-0.006 -0.0413,-0.0109 z"
       id="path491" /><path
       style="fill:#000000;stroke-width:0.0180852"
       d="m 66.591836,189.73125 c -0.06385,-0.0158 -0.08139,-0.0439 -0.08139,-0.12988 0,-0.16881 0.06762,-0.20049 0.428215,-0.20064 0.265415,-1.4e-4 0.482995,-0.0249 0.588095,-0.067 0.103242,-0.0413 0.183854,-0.14693 0.228731,-0.29967 0.05675,-0.19316 1.558162,-6.2198 1.558162,-6.25442 0,-0.0162 -0.01636,-0.0503 -0.03633,-0.0758 -0.0507,-0.0645 -0.168169,-0.0863 -0.524308,-0.0974 -0.353943,-0.0111 -0.428771,-0.0259 -0.452953,-0.0895 -0.01809,-0.0476 -0.0097,-0.11496 0.02272,-0.18201 0.03969,-0.0821 0.07276,-0.0844 0.874433,-0.0608 0.592052,0.0174 0.929853,0.0174 1.599303,-1.4e-4 0.772504,-0.0202 0.852696,-0.0196 0.893054,0.006 0.08415,0.0552 0.07748,0.20521 -0.01209,0.27209 -0.04433,0.0331 -0.08865,0.0375 -0.505412,0.05 -0.650628,0.0196 -0.817402,0.0659 -0.914332,0.25427 -0.05016,0.0975 -1.611906,6.31354 -1.612732,6.41902 -0.0011,0.1195 -0.03624,0.11525 0.956276,0.11525 0.985093,0 1.021069,-0.003 1.39714,-0.1183 0.797751,-0.24449 1.290218,-0.78349 1.704269,-1.86533 0.179141,-0.46805 0.189266,-0.48499 0.289775,-0.48499 0.07079,0 0.119067,0.0467 0.119067,0.11515 0,0.0742 -0.934187,2.6175 -0.977219,2.66053 -0.03633,0.0363 -0.05275,0.0366 -2.771435,0.0391 -1.504186,0.002 -2.751158,-0.002 -2.771052,-0.006 z"
       id="path505" /><path
       style="fill:#000000;stroke-width:0.0217798"
       d="m 118.63023,83.904124 c -0.0275,-0.01178 -0.0646,-0.05633 -0.0824,-0.09905 -0.0291,-0.06963 -0.19876,-1.362441 -0.91457,-6.968803 -0.10248,-0.802587 -0.19618,-1.497092 -0.20823,-1.543343 -0.0263,-0.100813 -0.10523,-0.179272 -0.21246,-0.211109 -0.0433,-0.01285 -0.23802,-0.03108 -0.43273,-0.04047 -0.29503,-0.01424 -0.36125,-0.02367 -0.39748,-0.05644 -0.0504,-0.04561 -0.0578,-0.166392 -0.0153,-0.250387 0.056,-0.110666 0.0838,-0.113411 0.87019,-0.0859 0.56331,0.01972 0.91938,0.0193 1.60254,-0.0018 0.86417,-0.02674 0.87925,-0.02649 0.93653,0.01609 0.0702,0.05219 0.0846,0.144757 0.0394,0.253042 -0.04,0.09562 -0.12419,0.123208 -0.37674,0.123383 -0.19516,1.31e-4 -0.45225,0.043 -0.57827,0.09643 -0.11257,0.04772 -0.22941,0.155598 -0.24489,0.226111 -0.0105,0.0479 0.8693,7.012804 0.88827,7.031769 0.0113,0.01125 4.05679,-6.434346 4.13738,-6.591891 0.22558,-0.440982 0.0679,-0.702557 -0.45926,-0.761671 -0.20962,-0.0235 -0.25225,-0.05996 -0.23842,-0.203872 0.007,-0.06933 0.0263,-0.121425 0.0576,-0.152493 0.0467,-0.04643 0.0559,-0.04701 0.57475,-0.03629 0.75281,0.01556 1.18825,0.01353 1.64931,-0.0076 0.38558,-0.01769 0.40566,-0.01659 0.45707,0.02506 0.0973,0.0788 0.0513,0.303787 -0.072,0.351573 -0.0263,0.01022 -0.14586,0.02855 -0.26565,0.04077 -0.42609,0.04345 -0.66788,0.161126 -0.99285,0.483186 -0.11483,0.113803 -0.2555,0.27327 -0.3126,0.354374 -0.0571,0.0811 -1.20439,1.899178 -2.54953,4.040159 -1.34515,2.140977 -2.46975,3.910635 -2.49911,3.932568 -0.0621,0.04641 -0.28481,0.06905 -0.36051,0.03665 z"
       id="path519" /><path
       style="fill:none;stroke:#808080;stroke-width:1;stroke-linecap:butt;stroke-linejoin:miter;stroke-dasharray:12, 1;stroke-dashoffset:0;stroke-opacity:1"
       d="M 87.884176,35.427329 58.529542,15.385418"
       id="path2017" /><path
       style="fill:none;stroke:#808080;stroke-width:1;stroke-linecap:butt;stroke-linejoin:miter;stroke-dasharray:12, 1;stroke-dashoffset:0;stroke-opacity:1"
       d="M 65.929329,73.336058 58.529542,15.385418"
       id="path662" /><circle
       style="fill:#000000;fill-opacity:1;stroke:none;stroke-width:0.557186;stroke-dasharray:3.34312, 1.11437;stroke-dashoffset:0;stroke-opacity:1"
       id="circle1706"
       cx="65.929329"
       cy="192.39873"
       r="1.3183824" /><path
       style="fill:none;stroke:#000000;stroke-width:1;stroke-linecap:butt;stroke-linejoin:miter;stroke-dasharray:none;stroke-opacity:1;marker-end:url(#Arrow4)"
       d="M 77.357271,54.716207 58.529542,15.385418"
       id="path521"
       sodipodi:nodetypes="cc" /><circle
       style="fill:none;stroke:#000000;stroke-width:1;stroke-dasharray:none;stroke-opacity:1"
       id="circle622"
       cx="114.61259"
       cy="-52.605492"
       r="42.310734" /><circle
       style="fill:#000000;fill-opacity:1;stroke:none;stroke-width:0.867595;stroke-dasharray:5.20558, 1.73519;stroke-dashoffset:0;stroke-opacity:1"
       id="path1492"
       cx="114.61264"
       cy="251.66533"
       r="2.0528567" /><circle
       id="circle632"
       style="fill:#000000;stroke:#000000;stroke-width:0.264583"
       cx="114.60625"
       cy="87.612511"
       r="0.0034999193" /><circle
       style="fill:#000000;fill-opacity:1;stroke:none;stroke-width:0.867595;stroke-dasharray:5.20558, 1.73519;stroke-dashoffset:0;stroke-opacity:1"
       id="circle638"
       cx="114.61264"
       cy="87.623535"
       r="2.0528567" /><text
       xml:space="preserve"
       style="font-size:11.8262px;line-height:1.25;font-family:sans-serif;stroke-width:0.886966"
       x="86.769485"
       y="197.22495"
       id="text652"><tspan
         sodipodi:role="line"
         id="tspan650"
         style="font-style:normal;font-variant:normal;font-weight:normal;font-stretch:normal;font-size:11.8262px;font-family:'Fira Code';-inkscape-font-specification:'Fira Code';stroke-width:0.886966"
         x="86.769485"
         y="197.22495" /></text><path
       style="fill:#000000;stroke-width:0.0217798"
       d="m 118.63023,83.904124 c -0.0275,-0.01178 -0.0646,-0.05633 -0.0824,-0.09905 -0.0291,-0.06963 -0.19876,-1.362441 -0.91457,-6.968803 -0.10248,-0.802587 -0.19618,-1.497092 -0.20823,-1.543343 -0.0263,-0.100813 -0.10523,-0.179272 -0.21246,-0.211109 -0.0433,-0.01285 -0.23802,-0.03108 -0.43273,-0.04047 -0.29503,-0.01424 -0.36125,-0.02367 -0.39748,-0.05644 -0.0504,-0.04561 -0.0578,-0.166392 -0.0153,-0.250387 0.056,-0.110666 0.0838,-0.113411 0.87019,-0.0859 0.56331,0.01972 0.91938,0.0193 1.60254,-0.0018 0.86417,-0.02674 0.87925,-0.02649 0.93653,0.01609 0.0702,0.05219 0.0846,0.144757 0.0394,0.253042 -0.04,0.09562 -0.12419,0.123208 -0.37674,0.123383 -0.19516,1.31e-4 -0.45225,0.043 -0.57827,0.09643 -0.11257,0.04772 -0.22941,0.155598 -0.24489,0.226111 -0.0105,0.0479 0.8693,7.012804 0.88827,7.031769 0.0113,0.01125 4.05679,-6.434346 4.13738,-6.591891 0.22558,-0.440982 0.0679,-0.702557 -0.45926,-0.761671 -0.20962,-0.0235 -0.25225,-0.05996 -0.23842,-0.203872 0.007,-0.06933 0.0263,-0.121425 0.0576,-0.152493 0.0467,-0.04643 0.0559,-0.04701 0.57475,-0.03629 0.75281,0.01556 1.18825,0.01353 1.64931,-0.0076 0.38558,-0.01769 0.40566,-0.01659 0.45707,0.02506 0.0973,0.0788 0.0513,0.303787 -0.072,0.351573 -0.0263,0.01022 -0.14586,0.02855 -0.26565,0.04077 -0.42609,0.04345 -0.66788,0.161126 -0.99285,0.483186 -0.11483,0.113803 -0.2555,0.27327 -0.3126,0.354374 -0.0571,0.0811 -1.20439,1.899178 -2.54953,4.040159 -1.34515,2.140977 -2.46975,3.910635 -2.49911,3.932568 -0.0621,0.04641 -0.28481,0.06905 -0.36051,0.03665 z"
       id="path658" /><path
       style="fill:none;stroke:#000000;stroke-width:1;stroke-linecap:butt;stroke-linejoin:miter;stroke-dasharray:none;stroke-opacity:1;marker-end:url(#marker2091)"
       d="M 96.342299,94.436286 88.303058,36.821356"
       id="path2087"
       sodipodi:nodetypes="cc" /><circle
       style="fill:#000000;fill-opacity:1;stroke:none;stroke-width:0.550946;stroke-dasharray:3.3057, 1.10191;stroke-dashoffset:0;stroke-opacity:1"
       id="circle2147"
       cx="88.166107"
       cy="35.840286"
       r="1.3036238" /><path
       style="fill:#000000;stroke-width:0.0181537"
       d="m 90.080588,153.06396 c -0.06408,-0.0158 -0.08169,-0.044 -0.08169,-0.13034 0,-0.16945 0.06788,-0.20125 0.42984,-0.20139 0.266421,-1.4e-4 0.484822,-0.0249 0.590318,-0.0672 0.103632,-0.0414 0.18455,-0.14749 0.229597,-0.30081 0.05697,-0.19389 1.564065,-6.24336 1.564065,-6.27811 0,-0.0163 -0.01642,-0.0506 -0.03648,-0.0759 -0.05093,-0.0647 -0.168807,-0.0867 -0.526293,-0.0979 -0.355285,-0.0101 -0.430395,-0.026 -0.454668,-0.0898 -0.01817,-0.0478 -0.0098,-0.11542 0.0228,-0.18269 0.03982,-0.0824 0.07303,-0.0846 0.877746,-0.061 0.594291,0.0175 0.933372,0.0175 1.60536,-1.1e-4 0.775429,-0.0201 0.855928,-0.0196 0.896437,0.006 0.08447,0.0555 0.07778,0.20598 -0.01207,0.27312 -0.0445,0.0332 -0.08898,0.0377 -0.507327,0.0502 -0.653092,0.0195 -0.820494,0.0661 -0.917794,0.25525 -0.05038,0.098 -1.61801,6.33746 -1.618838,6.44335 -0.0011,0.11999 -0.03636,0.11565 0.959897,0.11565 0.988826,0 1.024937,-0.003 1.402429,-0.1188 0.800774,-0.24542 1.295105,-0.78645 1.71073,-1.87238 0.179815,-0.46982 0.189982,-0.48685 0.29087,-0.48685 0.07106,0 0.119516,0.0468 0.119516,0.11566 0,0.0744 -0.937725,2.62743 -0.980923,2.6706 -0.03647,0.0365 -0.05295,0.0367 -2.781934,0.0392 -1.509881,0.001 -2.761576,-10e-4 -2.781544,-0.006 z m 7.477319,-7.07806 c -0.04104,-0.0146 -0.09275,-0.0458 -0.114914,-0.0694 l -0.04032,-0.043 0.455151,-1.394 c 0.25883,-0.79275 0.47408,-1.42262 0.49905,-1.46036 0.0535,-0.0808 0.15008,-0.12955 0.257,-0.12955 0.12104,0 0.19725,0.0331 0.27773,0.12037 0.0843,0.0913 0.10853,0.18085 0.079,0.29114 -0.0195,0.0729 -1.19712,2.59346 -1.24889,2.67313 -0.03032,0.0466 -0.05902,0.0487 -0.163858,0.0112 z"
       id="path2285" /><path
       id="path2287"
       style="fill:none;stroke:#000000;stroke-width:1;stroke-dasharray:none;stroke-opacity:1"
       d="m 114.61264,293.99861 a 42.310734,42.310734 0 0 1 -42.310593,-42.3106 h 84.621193 a 42.310734,42.310734 0 0 1 -42.3106,42.3106 z" /><path
       id="ellipse1956"
       style="fill:none;fill-opacity:1;stroke:#808080;stroke-width:0.988456;stroke-dasharray:none;stroke-dashoffset:0;stroke-opacity:1"
       d="m 72.296362,251.66521 a 42.316372,14.197513 0 0 0 42.316278,14.19758 42.316372,14.197513 0 0 0 42.31628,-14.19758 z" /><path
       id="circle1054"
       style="fill:none;stroke:#000000;stroke-width:1;stroke-dasharray:none;stroke-opacity:1"
       d="m 114.61264,209.35465 a 42.310734,42.310734 0 0 0 -42.310593,42.3106 h 84.621193 a 42.310734,42.310734 0 0 0 -42.3106,-42.3106 z" /></g></svg>
